<svg id="Layer_1" enable-background="new 0 0 256 256" height="512" viewBox="0 0 256 256" width="512" xmlns="http://www.w3.org/2000/svg"><g><circle cx="127.999" cy="16.693" fill="#707070" r="6.9"/><path d="m151.23 109.845h-46.46c-27.189 0-49.23 22.041-49.23 49.23v17.487h144.92v-17.487c0-27.188-22.041-49.23-49.23-49.23z" fill="#63bce7"/><g><path d="m122.828 109.845h-18.058c-27.189 0-49.23 22.041-49.23 49.23v17.487h18.059v-17.487c-.001-27.189 22.04-49.23 49.229-49.23z" fill="#6377e7"/></g><g><path d="m133.172 109.845h18.059c27.189 0 49.23 22.041 49.23 49.23v17.487h-18.059v-17.487c0-27.189-22.041-49.23-49.23-49.23z" fill="#67dceb"/></g><circle cx="163.949" cy="69.753" fill="#f8af23" r="9.102"/><circle cx="92.051" cy="69.753" fill="#f87023" r="9.102"/><path d="m128 127.462c-7.311 0-13.293-5.982-13.293-13.293v-14.737c0-7.311 5.982-13.293 13.293-13.293 7.311 0 13.293 5.982 13.293 13.293v14.738c0 7.31-5.982 13.292-13.293 13.292z" fill="#f8af23"/><g><path d="m114.707 99.432v14.738c0 6.359 4.526 11.707 10.515 12.994v-40.726c-5.988 1.287-10.515 6.635-10.515 12.994z" fill="#f87023"/></g><path d="m128 102.814c-19.772 0-35.949-16.177-35.949-35.949v-14.223c0-19.772 16.177-35.949 35.949-35.949 19.772 0 35.949 16.177 35.949 35.949v14.223c0 19.772-16.177 35.949-35.949 35.949z" fill="#f8af23"/><g><path d="m110.109 66.865v-14.223c0-16.656 11.481-30.76 26.92-34.792-2.888-.754-5.914-1.157-9.029-1.157-19.772 0-35.949 16.177-35.949 35.949v14.223c0 19.772 16.177 35.949 35.949 35.949 3.116 0 6.141-.403 9.029-1.157-15.438-4.032-26.92-18.136-26.92-34.792z" fill="#f87023"/></g><g fill="#3f3679"><circle cx="113.818" cy="72.011" r="3.632"/><circle cx="142.182" cy="72.011" r="3.632"/></g><path d="m162.34 42.031c-4.555-14.635-18.258-25.338-34.34-25.338-19.772 0-35.949 16.177-35.949 35.949v.722h57.513 14.386 18.05c0-6.259-5.074-11.333-11.333-11.333z" fill="#63bce7"/><g><path d="m137.024 17.852c-2.887-.754-5.91-1.159-9.024-1.159-19.772 0-35.949 16.177-35.949 35.949v.722h18.059v-.722c-.001-16.654 11.478-30.756 26.914-34.79z" fill="#6377e7"/></g><path d="m133.889 39.813v-6.8l-5.889-3.4-5.889 3.4v6.8l5.889 3.4z" fill="#f46275"/><path d="m102.566 53.365s.453 12.083-10.515 12.083v-12.083z" fill="#707070"/><path d="m153.434 53.365s-.453 12.083 10.515 12.083v-12.083z" fill="#9e9e9e"/><path d="m224.563 223.6v3.3c0 4.269-3.493 7.762-7.762 7.762h-177.602c-4.269 0-7.762-3.493-7.762-7.762v-3.3z" fill="#63bce7"/><path d="m44.368 131.788h167.264v102.874h-167.264z" fill="#f46275"/><g><path d="m193.573 131.788h18.059v102.874h-18.059z" fill="#f48875"/></g><g><path d="m44.368 131.788h18.059v102.874h-18.059z" fill="#f43075"/></g><circle cx="128" cy="183.225" fill="#9e9e9e" r="7.112"/><path d="m32.196 29.74h12.861v15.288h-12.861z" fill="#9e9e9e"/><circle cx="38.626" cy="62.868" fill="#f8af23" r="26.208"/><g><path d="m30.477 62.868c0-11.301 7.153-20.931 17.179-24.61-2.815-1.033-5.856-1.598-9.029-1.598-14.474 0-26.208 11.734-26.208 26.208s11.734 26.208 26.208 26.208c3.173 0 6.214-.564 9.029-1.598-10.026-3.679-17.179-13.309-17.179-24.61z" fill="#f87023"/></g><path d="m46.741 29.74h-16.23c-1.616 0-2.926-1.31-2.926-2.926v-.295c0-1.616 1.31-2.926 2.926-2.926h16.23c1.616 0 2.926 1.31 2.926 2.926v.295c0 1.616-1.31 2.926-2.926 2.926z" fill="#f46275"/><circle cx="217.374" cy="62.868" fill="#f46275" r="26.208"/><g><path d="m217.374 36.66c-3.173 0-6.214.564-9.029 1.598 10.025 3.679 17.179 13.309 17.179 24.61s-7.153 20.931-17.179 24.61c2.815 1.033 5.856 1.598 9.029 1.598 14.474 0 26.208-11.734 26.208-26.208s-11.734-26.208-26.208-26.208z" fill="#f48875"/></g><g><path d="m217.374 72.795c6.423 0 12.31-2.622 16.891-6.983 1.617-1.539 1.617-4.349 0-5.888-4.581-4.361-10.468-6.983-16.891-6.983s-12.31 2.622-16.891 6.983c-1.617 1.539-1.617 4.349 0 5.888 4.581 4.36 10.468 6.983 16.891 6.983z" fill="#63bce7"/><circle cx="217.374" cy="62.868" fill="#f8af23" r="4.148"/></g><g fill="#3f3679"><path d="m128 85.439c.829 0 1.5-.671 1.5-1.5v-8.262c0-.829-.671-1.5-1.5-1.5s-1.5.671-1.5 1.5v8.262c0 .829.671 1.5 1.5 1.5z"/><path d="m123.216 64.066c0-.829-.671-1.5-1.5-1.5h-15.798c-.829 0-1.5.671-1.5 1.5s.671 1.5 1.5 1.5h15.798c.828 0 1.5-.671 1.5-1.5z"/><path d="m134.282 65.566h15.799c.828 0 1.5-.671 1.5-1.5s-.672-1.5-1.5-1.5h-15.799c-.828 0-1.5.671-1.5 1.5s.672 1.5 1.5 1.5z"/><path d="m135.921 91.338c.582-.589.576-1.539-.014-2.121-.589-.582-1.539-.577-2.121.014-5.381 5.448-11.68.462-11.953.241-.642-.522-1.584-.429-2.108.21-.525.641-.432 1.586.208 2.111 1.697 1.392 4.763 2.981 8.171 2.981 2.557 0 5.307-.894 7.817-3.436z"/><path d="m179.166 139.906h-4.417c-.828 0-1.5.671-1.5 1.5s.672 1.5 1.5 1.5h4.417c.828 0 1.5-.671 1.5-1.5s-.672-1.5-1.5-1.5z"/><path d="m121.361 41.112 5.889 3.4c.232.134.491.201.75.201s.518-.067.75-.201l5.89-3.4c.464-.268.75-.763.75-1.299v-6.8c0-.536-.286-1.031-.75-1.299l-5.89-3.4c-.464-.269-1.036-.269-1.5 0l-5.889 3.4c-.464.268-.75.763-.75 1.299v6.8c0 .537.286 1.032.75 1.299zm2.25-7.233 4.389-2.534 4.39 2.535v5.068l-4.39 2.533-4.389-2.534z"/><path d="m27.7 244.707h-18.172c-.829 0-1.5.671-1.5 1.5s.671 1.5 1.5 1.5h18.172c.829 0 1.5-.671 1.5-1.5s-.671-1.5-1.5-1.5z"/><path d="m246.472 244.707h-18.172c-.828 0-1.5.671-1.5 1.5s.672 1.5 1.5 1.5h18.172c.828 0 1.5-.671 1.5-1.5s-.672-1.5-1.5-1.5z"/><path d="m213.788 244.707h-171.577c-.829 0-1.5.671-1.5 1.5s.671 1.5 1.5 1.5h171.577c.828 0 1.5-.671 1.5-1.5s-.672-1.5-1.5-1.5z"/><path d="m237.169 234.662c0 .829.672 1.5 1.5 1.5h7.803c.828 0 1.5-.671 1.5-1.5s-.672-1.5-1.5-1.5h-7.803c-.828 0-1.5.671-1.5 1.5z"/><path d="m229.8 234.662c0-.829-.672-1.5-1.5-1.5h-4.695c1.52-1.651 2.457-3.846 2.457-6.262v-3.3c0-.829-.672-1.5-1.5-1.5h-11.431v-90.312c0-.829-.672-1.5-1.5-1.5h-18.638c-9.49-13.743-25.066-21.942-41.763-21.942h-8.438v-7.083c9.218-3.98 16.525-11.56 20.152-20.958.334.031.669.051 1.004.051 5.847 0 10.603-4.756 10.603-10.602 0-5.327-3.928-9.762-9.103-10.493v-4.395h16.55c.828 0 1.5-.671 1.5-1.5 0-7.076-5.757-12.833-12.833-12.833h-7.239c-4.233-12.279-14.685-21.454-27.054-24.36-.272-4.389-3.918-7.878-8.374-7.878-4.448 0-8.089 3.478-8.372 7.855-16.63 3.815-29.076 18.723-29.076 36.494v.723.302 5.596c-5.168.733-9.103 5.18-9.103 10.49 0 5.846 4.756 10.602 10.603 10.602.335 0 .67-.021 1.003-.052 3.627 9.399 10.935 16.98 20.153 20.96v7.083h-8.438c-16.704 0-32.269 8.198-41.76 21.942h-18.64c-.829 0-1.5.671-1.5 1.5v90.31h-11.431c-.829 0-1.5.671-1.5 1.5v3.3c0 2.416.937 4.611 2.457 6.262h-22.866c-.829 0-1.5.671-1.5 1.5s.671 1.5 1.5 1.5h29.671 5.169 167.264 5.169 11.499c.828 0 1.5-.672 1.5-1.5zm-58.248-164.909c0 4.192-3.41 7.602-7.603 7.602-.002 0-.004 0-.006 0 .974-3.331 1.506-6.848 1.506-10.49v-1.417-3.141c3.498.698 6.103 3.774 6.103 7.446zm-9.103-5.898c-1.928-.248-3.505-.996-4.7-2.231-1.977-2.043-2.569-5.009-2.744-6.759h7.444zm-34.45-52.562c2.598 0 4.773 1.844 5.285 4.292-1.736-.254-3.5-.392-5.284-.392-1.793 0-3.555.135-5.282.38.517-2.442 2.688-4.28 5.281-4.28zm.001 6.9c14.238 0 27.201 9.09 32.228 22.338h-10.665c-.828 0-1.5.671-1.5 1.5s.672 1.5 1.5 1.5h12.776 8.326c4.912 0 8.994 3.621 9.719 8.333h-16.436-10.515-50.869-9.004c.414-18.637 15.704-33.671 34.44-33.671zm-34.449 36.672h7.449c-.17 1.742-.757 4.69-2.738 6.747-1.197 1.243-2.777 1.994-4.711 2.243zm-1.5 22.49c-4.192 0-7.603-3.41-7.603-7.602 0-3.661 2.609-6.746 6.103-7.446v3.141 1.417c0 3.641.532 7.159 1.506 10.49-.002-.001-.004 0-.006 0zm1.5-10.487c2.791-.276 5.101-1.336 6.872-3.174 2.709-2.813 3.41-6.695 3.587-8.829h47.981c.176 2.134.877 6.016 3.587 8.829 1.771 1.839 4.081 2.898 6.872 3.174-.002 18.994-15.455 34.446-34.449 34.446-18.996 0-34.449-15.452-34.45-34.446zm34.449 37.446c4.12 0 8.082-.679 11.793-1.913v11.769c0 6.502-5.29 11.792-11.793 11.792-6.502 0-11.792-5.29-11.792-11.792v-11.769c3.71 1.234 7.672 1.913 11.792 1.913zm-23.23 7.032h8.438v2.824c0 8.157 6.636 14.792 14.792 14.792 8.157 0 14.793-6.636 14.793-14.792v-2.824h8.438c15.006 0 29.049 7.042 38.058 18.942h-122.582c9.011-11.903 23.048-18.942 38.063-18.942zm-71.833 115.554v-1.8h9.931v8.062h-3.669c-3.453 0-6.262-2.809-6.262-6.262zm12.931 6.262v-99.874h164.264v99.874zm167.264 0v-8.062h9.931v1.8c0 3.453-2.809 6.262-6.262 6.262z"/><path d="m128 174.612c-4.749 0-8.612 3.863-8.612 8.612s3.863 8.612 8.612 8.612 8.612-3.863 8.612-8.612-3.863-8.612-8.612-8.612zm0 14.225c-3.095 0-5.612-2.518-5.612-5.612s2.518-5.612 5.612-5.612 5.612 2.518 5.612 5.612-2.517 5.612-5.612 5.612z"/><path d="m37.07 90.529v4.725c0 2.703.961 5.328 2.708 7.391l3.342 3.95-3.602-.485c-.817-.104-1.576.466-1.687 1.287-.11.821.466 1.576 1.287 1.687l7.049.948c.067.009.134.013.2.013.327 0 .647-.107.91-.308.316-.241.524-.598.577-.992l.948-7.05c.11-.821-.466-1.576-1.287-1.687-.818-.105-1.576.465-1.687 1.287l-.448 3.328-3.313-3.917c-1.288-1.522-1.998-3.458-1.998-5.453v-4.716c14.61-.754 26.264-12.876 26.264-27.67 0-12.523-8.352-23.126-19.777-26.546v-5.081h.185c2.44 0 4.426-1.986 4.426-4.426v-.294c0-2.441-1.986-4.427-4.426-4.427h-16.23c-2.44 0-4.426 1.986-4.426 4.427v.294c0 2.44 1.986 4.426 4.426 4.426h.184v5.082c-11.424 3.42-19.777 14.023-19.777 26.545 0 14.756 11.596 26.852 26.152 27.662zm-7.985-63.715v-.294c0-.787.64-1.427 1.426-1.427h16.23c.787 0 1.426.64 1.426 1.427v.294c0 .787-.64 1.426-1.426 1.426h-1.685-12.861-1.684c-.786 0-1.426-.639-1.426-1.426zm4.61 4.426h9.861v4.368c-1.601-.289-3.247-.448-4.931-.448s-3.329.159-4.931.448v-4.368zm4.931 6.92c13.624 0 24.708 11.084 24.708 24.708s-11.084 24.708-24.708 24.708-24.708-11.084-24.708-24.708 11.084-24.708 24.708-24.708z"/><path d="m38.626 45.591c.829 0 1.5-.671 1.5-1.5v-2.245c0-.829-.671-1.5-1.5-1.5s-1.5.671-1.5 1.5v2.245c0 .829.671 1.5 1.5 1.5z"/><path d="m38.626 85.388c.829 0 1.5-.671 1.5-1.5v-2.245c0-.829-.671-1.5-1.5-1.5s-1.5.671-1.5 1.5v2.245c0 .829.671 1.5 1.5 1.5z"/><path d="m57.402 64.368h2.245c.829 0 1.5-.671 1.5-1.5s-.671-1.5-1.5-1.5h-2.245c-.829 0-1.5.671-1.5 1.5s.672 1.5 1.5 1.5z"/><path d="m19.85 61.368h-2.245c-.829 0-1.5.671-1.5 1.5s.671 1.5 1.5 1.5h2.245c.829 0 1.5-.671 1.5-1.5s-.671-1.5-1.5-1.5z"/><path d="m46.123 71.927c.29.271.657.404 1.024.404.401 0 .801-.16 1.096-.476.566-.605.534-1.555-.071-2.12l-8.046-7.52v-13.789c0-.829-.671-1.5-1.5-1.5s-1.5.671-1.5 1.5v14.442c0 .416.172.812.476 1.096z"/><path d="m215.93 90.537v4.716c0 1.995-.709 3.931-1.998 5.453l-3.313 3.916-.448-3.328c-.109-.821-.86-1.396-1.687-1.287-.821.111-1.396.866-1.286 1.687l.948 7.05c.053.394.26.751.576.992.264.201.583.308.91.308.066 0 .134-.004.2-.013l7.049-.948c.821-.111 1.396-.866 1.286-1.687-.109-.821-.86-1.396-1.687-1.287l-3.601.485 3.341-3.949c1.746-2.062 2.708-4.688 2.708-7.391v-4.725c14.557-.81 26.152-12.906 26.152-27.661 0-15.278-12.43-27.708-27.708-27.708s-27.708 12.43-27.708 27.708c.002 14.793 11.656 26.916 26.266 27.669zm1.444-52.377c13.624 0 24.708 11.084 24.708 24.708s-11.084 24.708-24.708 24.708-24.708-11.084-24.708-24.708 11.084-24.708 24.708-24.708z"/><path d="m235.299 66.898c1.067-1.015 1.679-2.484 1.679-4.031s-.612-3.015-1.679-4.03c-5.01-4.77-11.376-7.397-17.925-7.397s-12.915 2.627-17.926 7.397c-1.066 1.015-1.678 2.484-1.678 4.03s.611 3.015 1.678 4.031c5.011 4.77 11.377 7.396 17.926 7.396s12.915-2.627 17.925-7.396zm-34.528-4.031c0-.729.271-1.405.746-1.857 4.45-4.237 10.082-6.57 15.857-6.57s11.406 2.333 15.856 6.57c.475.451.747 1.128.747 1.856 0 .729-.272 1.406-.747 1.858-4.45 4.236-10.081 6.569-15.856 6.569s-11.406-2.333-15.857-6.569c-.475-.451-.746-1.128-.746-1.857z"/><path d="m223.022 62.868c0-3.115-2.534-5.648-5.648-5.648s-5.648 2.534-5.648 5.648 2.534 5.648 5.648 5.648 5.648-2.534 5.648-5.648zm-8.296 0c0-1.46 1.188-2.648 2.648-2.648s2.648 1.188 2.648 2.648-1.188 2.648-2.648 2.648-2.648-1.188-2.648-2.648z"/></g></g></svg>